<svg width="869" height="212" viewBox="0 0 869 212" fill="none" xmlns="http://www.w3.org/2000/svg">
<path d="M106.249 110.839H20.2812C20.4297 121.529 22.5083 129.844 26.5172 135.783C32.9016 145.879 42.2557 150.927 54.5792 150.927C69.7237 150.927 79.8943 143.132 85.0909 127.542H103.799C101.423 140.311 95.8554 150.259 87.0953 157.386C78.3353 164.513 67.2739 168.076 53.911 168.076C37.5786 168.076 24.6612 162.583 15.1587 151.595C5.65623 140.46 0.905029 125.315 0.905029 106.162C0.905029 87.0083 5.73047 71.7152 15.3814 60.2826C25.1808 48.7015 38.1726 42.9109 54.3564 42.9109C65.3437 42.9109 74.9946 45.6577 83.3093 51.1513C91.7724 56.6449 97.8599 64.143 101.572 73.6454C104.69 81.8116 106.249 94.2094 106.249 110.839ZM20.7266 95.6941H86.2045C86.353 95.3972 86.4272 94.9517 86.4272 94.3578C86.4272 84.7069 83.3092 76.6149 77.0732 70.082C70.8372 63.4006 63.1908 60.0599 54.1337 60.0599C44.7797 60.0599 37.059 63.3263 30.9714 69.8593C24.8839 76.2438 21.469 84.8554 20.7266 95.6941Z" fill="#E3E3E3"/>
<path d="M175.32 102.598L215.631 162.954H194.028L164.852 118.188L135.231 162.954H114.073L155.275 103.489L116.301 46.2516H137.458L165.52 88.5673L193.582 46.2516H214.517L175.32 102.598Z" fill="#E3E3E3"/>
<path d="M230.382 211.505V46.2516H247.531V63.846C256.291 49.8893 268.689 42.9109 284.724 42.9109C300.166 42.9109 312.341 48.6272 321.25 60.0599C330.307 71.4925 334.835 87.0083 334.835 106.607C334.835 125.167 330.232 140.088 321.027 151.373C311.97 162.508 299.943 168.076 284.947 168.076C270.545 168.076 258.593 162.286 249.09 150.704V211.505H230.382ZM281.607 60.2826C271.807 60.2826 263.938 64.4399 257.999 72.7546C252.06 80.9208 249.09 91.8337 249.09 105.494C249.09 119.153 252.06 130.141 257.999 138.455C263.938 146.621 271.807 150.704 281.607 150.704C291.703 150.704 299.869 146.621 306.105 138.455C312.341 130.141 315.459 119.376 315.459 106.162C315.459 92.2049 312.341 81.0692 306.105 72.7546C300.018 64.4399 291.851 60.2826 281.607 60.2826Z" fill="#E3E3E3"/>
<path d="M455.249 110.839H369.281C369.43 121.529 371.508 129.844 375.517 135.783C381.902 145.879 391.256 150.927 403.579 150.927C418.724 150.927 428.894 143.132 434.091 127.542H452.799C450.423 140.311 444.855 150.259 436.095 157.386C427.335 164.513 416.274 168.076 402.911 168.076C386.579 168.076 373.661 162.583 364.159 151.595C354.656 140.46 349.905 125.315 349.905 106.162C349.905 87.0083 354.73 71.7152 364.381 60.2826C374.181 48.7015 387.172 42.9109 403.356 42.9109C414.344 42.9109 423.994 45.6577 432.309 51.1513C440.772 56.6449 446.86 64.143 450.572 73.6454C453.69 81.8116 455.249 94.2094 455.249 110.839ZM369.727 95.6941H435.204C435.353 95.3972 435.427 94.9517 435.427 94.3578C435.427 84.7069 432.309 76.6149 426.073 70.082C419.837 63.4006 412.191 60.0599 403.134 60.0599C393.78 60.0599 386.059 63.3263 379.971 69.8593C373.884 76.2438 370.469 84.8554 369.727 95.6941Z" fill="#E3E3E3"/>
<path d="M532.953 62.5097C520.481 62.8067 511.127 65.702 504.891 71.1956C498.655 76.6892 495.537 87.0825 495.537 102.376V162.954H476.829V46.2516H493.978V67.4094C499.323 58.6493 504.446 52.4133 509.346 48.7015C514.394 44.8411 519.887 42.9109 525.826 42.9109C527.46 42.9109 529.835 43.1336 532.953 43.579V62.5097Z" fill="#E3E3E3"/>
<path d="M591.083 46.2516V61.3961H571.93V141.35C571.93 145.508 572.598 148.329 573.934 149.814C575.419 151.15 578.166 151.818 582.175 151.818C585.887 151.818 588.856 151.521 591.083 150.927V166.517C585.293 167.556 580.245 168.076 575.939 168.076C568.663 168.076 563.096 166.443 559.235 163.176C555.375 160.058 553.445 155.53 553.445 149.591V61.3961H537.632V46.2516H553.445V14.1808H571.93V46.2516H591.083Z" fill="#E3E3E3"/>
<path d="M628.793 46.2516V162.954H610.308V46.2516H628.793ZM628.793 0.595215V23.9802H610.085V0.595215H628.793Z" fill="#E3E3E3"/>
<path d="M670.815 128.21C671.706 135.189 674.081 140.757 677.942 144.914C681.951 148.923 689.077 150.927 699.322 150.927C707.489 150.927 714.021 149.294 718.921 146.027C723.969 142.613 726.493 138.158 726.493 132.665C726.493 128.359 725.083 124.944 722.262 122.42C719.441 119.896 714.838 117.891 708.454 116.407L691.082 112.175C677.274 108.908 667.623 104.825 662.129 99.9257C656.784 94.8775 654.111 87.7507 654.111 78.5451C654.111 67.7064 658.194 59.0948 666.361 52.7103C674.527 46.1774 685.366 42.9109 698.877 42.9109C712.388 42.9109 722.781 46.0289 730.057 52.2649C737.332 58.5009 741.044 67.3352 741.193 78.7678H721.594C721.148 66.2959 713.353 60.0599 698.209 60.0599C690.637 60.0599 684.623 61.6931 680.169 64.9596C675.715 68.0776 673.487 72.3091 673.487 77.6543C673.487 81.8116 675.195 85.2266 678.61 87.8991C682.025 90.4232 687.518 92.5761 695.091 94.3578L712.908 98.5894C724.489 101.41 732.878 105.419 738.075 110.616C743.271 115.664 745.87 122.494 745.87 131.106C745.87 142.39 741.49 151.373 732.729 158.054C724.118 164.735 712.462 168.076 697.763 168.076C667.623 168.076 652.107 154.788 651.216 128.21H670.815Z" fill="#E3E3E3"/>
<path d="M868.14 110.839H782.172C782.32 121.529 784.399 129.844 788.408 135.783C794.792 145.879 804.147 150.927 816.47 150.927C831.615 150.927 841.785 143.132 846.982 127.542H865.69C863.314 140.311 857.746 150.259 848.986 157.386C840.226 164.513 829.165 168.076 815.802 168.076C799.469 168.076 786.552 162.583 777.05 151.595C767.547 140.46 762.796 125.315 762.796 106.162C762.796 87.0083 767.621 71.7152 777.272 60.2826C787.072 48.7015 800.063 42.9109 816.247 42.9109C827.234 42.9109 836.885 45.6577 845.2 51.1513C853.663 56.6449 859.751 64.143 863.463 73.6454C866.581 81.8116 868.14 94.2094 868.14 110.839ZM782.617 95.6941H848.095C848.244 95.3972 848.318 94.9517 848.318 94.3578C848.318 84.7069 845.2 76.6149 838.964 70.082C832.728 63.4006 825.082 60.0599 816.025 60.0599C806.671 60.0599 798.95 63.3263 792.862 69.8593C786.775 76.2438 783.36 84.8554 782.617 95.6941Z" fill="#E3E3E3"/>
</svg>
