<svg width="1405" height="180" viewBox="0 0 1405 180" fill="none" xmlns="http://www.w3.org/2000/svg">
<path d="M123.94 57.8076C117.697 39.5473 104.119 30.4172 83.2058 30.4172C68.3791 30.4172 56.6738 35.6456 48.0899 46.1023C39.6621 56.559 35.4483 70.9955 35.4483 89.4118C35.4483 106.892 39.9743 121.25 49.0264 132.487C58.2345 143.724 69.9398 149.343 84.1422 149.343C86.3272 149.343 88.8243 149.109 91.6336 148.64C94.5989 148.016 98.1105 146.924 102.168 145.363C106.226 143.646 109.972 141.461 113.405 138.808C116.839 136.155 119.882 132.487 122.535 127.805C125.189 122.967 126.827 117.504 127.452 111.418H88.5902V82.1545H156.949V174.392H135.88L131.666 151.918C125.111 161.438 117.775 168.383 109.66 172.753C101.544 177.123 91.7116 179.308 80.1624 179.308C57.064 179.308 37.9454 170.881 22.8066 154.025C7.82381 137.169 0.33243 115.788 0.33243 89.88C0.33243 63.3481 7.97988 41.8104 23.2748 25.2669C38.5697 8.72345 58.4686 0.451719 82.9717 0.451719C103.573 0.451719 120.507 5.60204 133.773 15.9027C147.039 26.2033 154.764 40.1716 156.949 57.8076H123.94ZM178.203 47.9751H210.978V72.7903C214.412 64.2064 219.25 57.5735 225.493 52.8913C231.735 48.2092 238.602 45.8682 246.094 45.8682C247.498 45.8682 248.825 45.9462 250.074 46.1023V79.3453C246.172 78.721 242.738 78.4088 239.773 78.4088C220.576 78.4088 210.978 88.0072 210.978 107.204V174.392H178.203V47.9751ZM290.139 179.777C278.589 179.777 269.303 176.343 262.28 169.476C255.257 162.453 251.745 153.245 251.745 141.851C251.745 119.533 264.153 106.267 288.968 102.053L302.078 99.7124C302.39 99.7124 303.951 99.5564 306.76 99.2442C309.569 98.776 311.364 98.4639 312.144 98.3078C312.925 97.9957 314.407 97.6055 316.592 97.1373C318.934 96.6691 320.572 96.1228 321.509 95.4985C322.445 94.8743 323.538 94.0939 324.786 93.1575C326.191 92.065 327.127 90.8945 327.595 89.6459C328.064 88.2413 328.298 86.6806 328.298 84.9638C328.298 76.536 321.977 72.3221 309.335 72.3221C301.22 72.3221 295.523 73.5707 292.245 76.0678C288.968 78.5649 286.939 83.091 286.159 89.6459H254.555C256.583 60.4608 274.61 45.8682 308.633 45.8682C343.124 45.8682 360.37 58.822 360.37 84.7297V154.961C360.37 160.736 362.867 165.886 367.862 170.412V174.392H332.278C329.78 171.271 328.532 167.057 328.532 161.75C316.983 173.768 304.185 179.777 290.139 179.777ZM328.298 123.591V114.695C325.332 116.1 320.728 117.426 314.486 118.675L303.248 120.782C296.381 122.187 291.543 124.215 288.734 126.869C285.925 129.522 284.52 133.268 284.52 138.106C284.52 142.788 286.081 146.534 289.202 149.343C292.48 151.996 296.85 153.323 302.312 153.323C310.584 153.323 316.983 150.747 321.509 145.597C326.035 140.447 328.298 133.111 328.298 123.591ZM383.055 47.9751H415.829V66.2354C424.881 52.6572 437.523 45.8682 453.754 45.8682C467.177 45.8682 477.555 49.6919 484.891 57.3394C492.382 64.9868 496.128 75.7556 496.128 89.6459V174.392H463.353V96.435C463.353 81.2961 456.33 73.7267 442.283 73.7267C434.324 73.7267 427.925 75.9898 423.087 80.5158C418.249 85.0418 415.829 91.0505 415.829 98.5419V174.392H383.055V47.9751ZM564.384 179.777C548.777 179.777 535.979 173.378 525.991 160.58C516.158 147.782 511.242 131.941 511.242 113.056C511.242 94.0159 516.314 78.0967 526.459 65.2989C536.603 52.3451 549.245 45.8682 564.384 45.8682C579.679 45.8682 591.306 52.033 599.266 64.3625V3.7292H632.04V174.392H599.266V161.516C591.15 173.69 579.523 179.777 564.384 179.777ZM571.641 73.2585C563.526 73.2585 556.893 77.0042 551.742 84.4956C546.592 91.8309 544.017 101.351 544.017 113.056C544.017 124.606 546.592 134.048 551.742 141.383C556.893 148.719 563.526 152.386 571.641 152.386C579.757 152.386 586.39 148.797 591.54 141.617C596.691 134.438 599.266 125.074 599.266 113.525C599.266 101.507 596.691 91.8309 591.54 84.4956C586.546 77.0042 579.913 73.2585 571.641 73.2585ZM686.774 47.9751V174.392H653.999V47.9751H686.774ZM686.774 3.7292V32.9924H653.999V3.7292H686.774ZM813.106 3.7292V145.129H894.809V174.392H777.991V3.7292H813.106ZM938.071 179.777C926.522 179.777 917.236 176.343 910.213 169.476C903.189 162.453 899.678 153.245 899.678 141.851C899.678 119.533 912.085 106.267 936.901 102.053L950.01 99.7124C950.323 99.7124 951.883 99.5564 954.693 99.2442C957.502 98.776 959.297 98.4639 960.077 98.3078C960.857 97.9957 962.34 97.6055 964.525 97.1373C966.866 96.6691 968.505 96.1228 969.441 95.4985C970.378 94.8743 971.47 94.0939 972.719 93.1575C974.123 92.065 975.06 90.8945 975.528 89.6459C975.996 88.2413 976.23 86.6806 976.23 84.9638C976.23 76.536 969.909 72.3221 957.268 72.3221C949.152 72.3221 943.456 73.5707 940.178 76.0678C936.901 78.5649 934.872 83.091 934.091 89.6459H902.487C904.516 60.4608 922.542 45.8682 956.565 45.8682C991.057 45.8682 1008.3 58.822 1008.3 84.7297V154.961C1008.3 160.736 1010.8 165.886 1015.79 170.412V174.392H980.21C977.713 171.271 976.464 167.057 976.464 161.75C964.915 173.768 952.117 179.777 938.071 179.777ZM976.23 123.591V114.695C973.265 116.1 968.661 117.426 962.418 118.675L951.181 120.782C944.314 122.187 939.476 124.215 936.666 126.869C933.857 129.522 932.453 133.268 932.453 138.106C932.453 142.788 934.013 146.534 937.135 149.343C940.412 151.996 944.782 153.323 950.245 153.323C958.516 153.323 964.915 150.747 969.441 145.597C973.967 140.447 976.23 133.111 976.23 123.591ZM1095.89 174.392H1061.48L1017.23 47.9751H1051.88L1079.27 140.447L1104.79 47.9751H1139.43L1095.89 174.392ZM1205.25 45.8682C1225.07 45.8682 1240.44 51.8769 1251.37 63.8943C1262.45 75.7556 1267.99 92.3771 1267.99 113.759C1267.99 134.048 1262.37 150.123 1251.13 161.984C1239.9 173.846 1224.68 179.777 1205.48 179.777C1185.97 179.777 1170.68 173.846 1159.6 161.984C1148.52 149.967 1142.98 133.58 1142.98 112.822C1142.98 92.065 1148.52 75.7556 1159.6 63.8943C1170.68 51.8769 1185.9 45.8682 1205.25 45.8682ZM1205.48 72.3221C1196.59 72.3221 1189.41 76.0678 1183.94 83.5592C1178.48 91.0505 1175.75 100.805 1175.75 112.822C1175.75 124.84 1178.48 134.594 1183.94 142.086C1189.41 149.577 1196.59 153.323 1205.48 153.323C1214.22 153.323 1221.32 149.655 1226.79 142.32C1232.4 134.828 1235.21 125.152 1235.21 113.291C1235.21 100.805 1232.48 90.8945 1227.02 83.5592C1221.71 76.0678 1214.53 72.3221 1205.48 72.3221ZM1284.53 47.9751H1317.31V72.7903C1320.74 64.2064 1325.58 57.5735 1331.82 52.8913C1338.07 48.2092 1344.93 45.8682 1352.43 45.8682C1353.83 45.8682 1355.16 45.9462 1356.4 46.1023V79.3453C1352.5 78.721 1349.07 78.4088 1346.1 78.4088C1326.91 78.4088 1317.31 88.0072 1317.31 107.204V174.392H1284.53V47.9751ZM1404.55 47.9751V174.392H1371.78V47.9751H1404.55ZM1404.55 3.7292V32.9924H1371.78V3.7292H1404.55Z" fill="#1B2C50"/>
</svg>
