<svg width="364" height="169" viewBox="0 0 364 169" fill="none" xmlns="http://www.w3.org/2000/svg">
<path d="M74.1638 18.8578V162.954H53.4514V18.8578H0V0.595215H127.392V18.8578H74.1638Z" fill="#E3E3E3"/>
<path d="M220.115 82.1086C220.115 73.9424 217.59 68.0776 212.542 64.5141C207.643 60.9507 202.149 59.169 196.061 59.169C186.559 59.169 178.912 62.8067 173.122 70.082C167.331 77.2089 164.436 86.7113 164.436 98.5894V162.954H145.951V0.595215H164.436V62.287C169.93 55.1602 175.423 50.1862 180.917 47.3652C186.559 44.3956 193.537 42.9109 201.852 42.9109C213.136 42.9109 222.045 45.8062 228.578 51.5967C235.259 57.2388 238.6 64.9596 238.6 74.759V162.954H220.115V82.1086Z" fill="#E3E3E3"/>
<path d="M363.991 110.839H278.024C278.172 121.529 280.251 129.844 284.26 135.783C290.644 145.879 299.998 150.927 312.322 150.927C327.466 150.927 337.637 143.132 342.833 127.542H361.541C359.166 140.311 353.598 150.259 344.838 157.386C336.078 164.513 325.016 168.076 311.654 168.076C295.321 168.076 282.404 162.583 272.901 151.595C263.399 140.46 258.648 125.315 258.648 106.162C258.648 87.0083 263.473 71.7152 273.124 60.2826C282.923 48.7015 295.915 42.9109 312.099 42.9109C323.086 42.9109 332.737 45.6577 341.052 51.1513C349.515 56.6449 355.602 64.143 359.314 73.6454C362.432 81.8116 363.991 94.2094 363.991 110.839ZM278.469 95.6941H343.947C344.096 95.3972 344.17 94.9517 344.17 94.3578C344.17 84.7069 341.052 76.6149 334.816 70.082C328.58 63.4006 320.933 60.0599 311.876 60.0599C302.522 60.0599 294.801 63.3263 288.714 69.8593C282.626 76.2438 279.211 84.8554 278.469 95.6941Z" fill="#E3E3E3"/>
</svg>
