<svg width="1481" height="223" viewBox="0 0 1481 223" fill="none" xmlns="http://www.w3.org/2000/svg">
<path d="M79.1008 19.6788V171.561H57.2692V19.6788H0.929707V0.429444H135.206V19.6788H79.1008ZM232.938 86.3472C232.938 77.7398 230.277 71.5581 224.956 67.8021C219.792 64.0461 214.001 62.1682 207.585 62.1682C197.569 62.1682 189.509 66.0024 183.406 73.6708C177.302 81.1827 174.251 91.1987 174.251 103.719V171.561H154.767V0.429444H174.251V65.4546C180.041 57.9427 185.832 52.7 191.622 49.7265C197.569 46.5965 204.924 45.0316 213.688 45.0316C225.582 45.0316 234.972 48.0833 241.858 54.1867C248.901 60.1337 252.422 68.2716 252.422 78.6005V171.561H232.938V86.3472ZM384.589 116.63H293.976C294.132 127.898 296.323 136.662 300.549 142.921C307.278 153.563 317.138 158.884 330.127 158.884C346.09 158.884 356.81 150.668 362.287 134.236H382.006C379.502 147.695 373.634 158.18 364.4 165.692C355.167 173.204 343.508 176.96 329.423 176.96C312.208 176.96 298.593 171.169 288.577 159.589C278.561 147.851 273.553 131.888 273.553 111.7C273.553 91.5116 278.639 75.3923 288.811 63.3419C299.14 51.135 312.834 45.0316 329.892 45.0316C341.473 45.0316 351.646 47.9268 360.41 53.7172C369.33 59.5077 375.746 67.4109 379.659 77.4268C382.945 86.0342 384.589 99.1018 384.589 116.63ZM294.445 100.667H363.461C363.618 100.354 363.696 99.8843 363.696 99.2583C363.696 89.0859 360.41 80.5567 353.837 73.6708C347.264 66.6284 339.204 63.1071 329.658 63.1071C319.798 63.1071 311.66 66.5501 305.244 73.4361C298.827 80.1655 295.228 89.2424 294.445 100.667ZM706.34 116.63H615.727C615.884 127.898 618.075 136.662 622.3 142.921C629.03 153.563 638.889 158.884 651.878 158.884C667.841 158.884 678.561 150.668 684.039 134.236H703.758C701.254 147.695 695.385 158.18 686.152 165.692C676.918 173.204 665.259 176.96 651.174 176.96C633.959 176.96 620.344 171.169 610.328 159.589C600.312 147.851 595.304 131.888 595.304 111.7C595.304 91.5116 600.39 75.3923 610.563 63.3419C620.892 51.135 634.585 45.0316 651.644 45.0316C663.225 45.0316 673.397 47.9268 682.161 53.7172C691.081 59.5077 697.498 67.4109 701.41 77.4268C704.697 86.0342 706.34 99.1018 706.34 116.63ZM616.197 100.667H685.213C685.369 100.354 685.447 99.8843 685.447 99.2583C685.447 89.0859 682.161 80.5567 675.588 73.6708C669.015 66.6284 660.955 63.1071 651.409 63.1071C641.55 63.1071 633.412 66.5501 626.995 73.4361C620.579 80.1655 616.979 89.2424 616.197 100.667ZM779.143 107.944L821.632 171.561H798.862L768.11 124.376L736.888 171.561H714.587L758.016 108.883L716.935 48.5528H739.236L768.814 93.1549L798.392 48.5528H820.459L779.143 107.944ZM837.181 222.736V48.5528H855.256V67.0979C864.49 52.387 877.557 45.0316 894.459 45.0316C910.735 45.0316 923.568 51.0568 932.958 63.1071C942.504 75.1575 947.278 91.5116 947.278 112.169C947.278 131.732 942.426 147.46 932.723 159.354C923.177 171.091 910.5 176.96 894.694 176.96C879.514 176.96 866.915 170.856 856.9 158.65V222.736H837.181ZM891.173 63.3419C880.844 63.3419 872.549 67.7239 866.289 76.4878C860.03 85.0952 856.9 96.5979 856.9 110.996C856.9 125.394 860.03 136.975 866.289 145.738C872.549 154.346 880.844 158.65 891.173 158.65C901.815 158.65 910.422 154.346 916.995 145.738C923.568 136.975 926.854 125.628 926.854 111.7C926.854 96.9891 923.568 85.2517 916.995 76.4878C910.579 67.7239 901.971 63.3419 891.173 63.3419ZM1074.2 116.63H983.585C983.741 127.898 985.932 136.662 990.158 142.921C996.887 153.563 1006.75 158.884 1019.74 158.884C1035.7 158.884 1046.42 150.668 1051.9 134.236H1071.62C1069.11 147.695 1063.24 158.18 1054.01 165.692C1044.78 173.204 1033.12 176.96 1019.03 176.96C1001.82 176.96 988.201 171.169 978.185 159.589C968.169 147.851 963.162 131.888 963.162 111.7C963.162 91.5116 968.248 75.3923 978.42 63.3419C988.749 51.135 1002.44 45.0316 1019.5 45.0316C1031.08 45.0316 1041.25 47.9268 1050.02 53.7172C1058.94 59.5077 1065.36 67.4109 1069.27 77.4268C1072.55 86.0342 1074.2 99.1018 1074.2 116.63ZM984.054 100.667H1053.07C1053.23 100.354 1053.3 99.8843 1053.3 99.2583C1053.3 89.0859 1050.02 80.5567 1043.45 73.6708C1036.87 66.6284 1028.81 63.1071 1019.27 63.1071C1009.41 63.1071 1001.27 66.5501 994.852 73.4361C988.436 80.1655 984.837 89.2424 984.054 100.667ZM1156.1 65.6894C1142.95 66.0024 1133.1 69.0541 1126.52 74.8445C1119.95 80.635 1116.66 91.5899 1116.66 107.709V171.561H1096.94V48.5528H1115.02V70.8538C1120.65 61.6204 1126.05 55.0475 1131.22 51.135C1136.54 47.066 1142.33 45.0316 1148.59 45.0316C1150.31 45.0316 1152.81 45.2663 1156.1 45.7358V65.6894ZM1217.37 48.5528V64.5156H1197.18V148.79C1197.18 153.172 1197.89 156.146 1199.3 157.711C1200.86 159.119 1203.76 159.823 1207.98 159.823C1211.89 159.823 1215.02 159.51 1217.37 158.884V175.317C1211.27 176.412 1205.95 176.96 1201.41 176.96C1193.74 176.96 1187.87 175.238 1183.8 171.795C1179.73 168.509 1177.7 163.736 1177.7 157.476V64.5156H1161.03V48.5528H1177.7V14.7491H1197.18V48.5528H1217.37ZM1257.12 48.5528V171.561H1237.64V48.5528H1257.12ZM1257.12 0.429444V25.078H1237.4V0.429444H1257.12ZM1301.41 134.94C1302.35 142.295 1304.85 148.164 1308.92 152.546C1313.15 156.772 1320.66 158.884 1331.46 158.884C1340.07 158.884 1346.95 157.163 1352.12 153.72C1357.44 150.12 1360.1 145.425 1360.1 139.635C1360.1 135.097 1358.61 131.497 1355.64 128.837C1352.66 126.176 1347.81 124.063 1341.08 122.498L1322.77 118.038C1308.22 114.595 1298.05 110.291 1292.26 105.127C1286.62 99.8061 1283.81 92.2941 1283.81 82.5912C1283.81 71.1668 1288.11 62.0899 1296.72 55.3605C1305.32 48.4745 1316.75 45.0316 1330.99 45.0316C1345.23 45.0316 1356.19 48.318 1363.85 54.891C1371.52 61.4639 1375.44 70.7756 1375.59 82.826H1354.93C1354.46 69.6801 1346.25 63.1071 1330.29 63.1071C1322.3 63.1071 1315.97 64.8286 1311.27 68.2716C1306.58 71.5581 1304.23 76.0183 1304.23 81.6522C1304.23 86.0342 1306.03 89.6337 1309.63 92.4506C1313.23 95.1111 1319.02 97.3803 1327 99.2583L1345.78 103.719C1357.99 106.692 1366.83 110.917 1372.31 116.395C1377.78 121.716 1380.52 128.915 1380.52 137.992C1380.52 149.886 1375.9 159.354 1366.67 166.396C1357.59 173.439 1345.31 176.96 1329.82 176.96C1298.05 176.96 1281.69 162.953 1280.75 134.94H1301.41ZM1509.4 116.63H1418.79C1418.94 127.898 1421.13 136.662 1425.36 142.921C1432.09 153.563 1441.95 158.884 1454.94 158.884C1470.9 158.884 1481.62 150.668 1487.1 134.236H1506.82C1504.31 147.695 1498.44 158.18 1489.21 165.692C1479.98 173.204 1468.32 176.96 1454.23 176.96C1437.02 176.96 1423.4 171.169 1413.39 159.589C1403.37 147.851 1398.36 131.888 1398.36 111.7C1398.36 91.5116 1403.45 75.3923 1413.62 63.3419C1423.95 51.135 1437.64 45.0316 1454.7 45.0316C1466.28 45.0316 1476.46 47.9268 1485.22 53.7172C1494.14 59.5077 1500.56 67.4109 1504.47 77.4268C1507.75 86.0342 1509.4 99.1018 1509.4 116.63ZM1419.25 100.667H1488.27C1488.43 100.354 1488.51 99.8843 1488.51 99.2583C1488.51 89.0859 1485.22 80.5567 1478.65 73.6708C1472.07 66.6284 1464.01 63.1071 1454.47 63.1071C1444.61 63.1071 1436.47 66.5501 1430.05 73.4361C1423.64 80.1655 1420.04 89.2424 1419.25 100.667Z" fill="#E3E3E3"/>
</svg>
