<svg width="1432" height="212" viewBox="0 0 1432 212" fill="#E3E3E3" xmlns="http://www.w3.org/2000/svg">
<path d="M74.1638 18.8578V162.954H53.4514V18.8578H0V0.595215H127.392V18.8578H74.1638Z" fill="#E3E3E3"/>
<path d="M220.115 82.1086C220.115 73.9424 217.59 68.0776 212.542 64.5141C207.643 60.9507 202.149 59.169 196.061 59.169C186.559 59.169 178.912 62.8067 173.122 70.082C167.331 77.2089 164.436 86.7113 164.436 98.5894V162.954H145.951V0.595215H164.436V62.287C169.93 55.1602 175.423 50.1862 180.917 47.3652C186.559 44.3956 193.537 42.9109 201.852 42.9109C213.136 42.9109 222.045 45.8062 228.578 51.5967C235.259 57.2388 238.6 64.9596 238.6 74.759V162.954H220.115V82.1086Z" fill="#E3E3E3"/>
<path d="M363.991 110.839H278.024C278.172 121.529 280.251 129.844 284.26 135.783C290.644 145.879 299.998 150.927 312.322 150.927C327.466 150.927 337.637 143.132 342.833 127.542H361.541C359.166 140.311 353.598 150.259 344.838 157.386C336.078 164.513 325.016 168.076 311.654 168.076C295.321 168.076 282.404 162.583 272.901 151.595C263.399 140.46 258.648 125.315 258.648 106.162C258.648 87.0083 263.473 71.7152 273.124 60.2826C282.923 48.7015 295.915 42.9109 312.099 42.9109C323.086 42.9109 332.737 45.6577 341.052 51.1513C349.515 56.6449 355.602 64.143 359.314 73.6454C362.432 81.8116 363.991 94.2093 363.991 110.839ZM278.469 95.6941H343.947C344.096 95.3972 344.17 94.9517 344.17 94.3578C344.17 84.7069 341.052 76.6149 334.816 70.082C328.58 63.4006 320.933 60.0599 311.876 60.0599C302.522 60.0599 294.801 63.3263 288.714 69.8593C282.626 76.2438 279.211 84.8554 278.469 95.6941Z" fill="#E3E3E3"/>
<path d="M669.249 110.839H583.281C583.43 121.529 585.508 129.844 589.517 135.783C595.902 145.879 605.256 150.927 617.579 150.927C632.724 150.927 642.894 143.132 648.091 127.542H666.799C664.423 140.311 658.855 150.259 650.095 157.386C641.335 164.513 630.274 168.076 616.911 168.076C600.579 168.076 587.661 162.583 578.159 151.595C568.656 140.46 563.905 125.315 563.905 106.162C563.905 87.0083 568.73 71.7152 578.381 60.2826C588.181 48.7015 601.172 42.9109 617.356 42.9109C628.344 42.9109 637.995 45.6577 646.309 51.1513C654.772 56.6449 660.86 64.143 664.572 73.6454C667.69 81.8116 669.249 94.2093 669.249 110.839ZM583.727 95.6941H649.204C649.353 95.3972 649.427 94.9517 649.427 94.3578C649.427 84.7069 646.309 76.6149 640.073 70.082C633.837 63.4006 626.191 60.0599 617.134 60.0599C607.78 60.0599 600.059 63.3263 593.971 69.8593C587.884 76.2438 584.469 84.8554 583.727 95.6941Z" fill="#E3E3E3"/>
<path d="M738.32 102.598L778.631 162.954H757.028L727.852 118.188L698.231 162.954H677.073L718.275 103.489L679.3 46.2516H700.458L728.52 88.5673L756.582 46.2516H777.517L738.32 102.598Z" fill="#E3E3E3"/>
<path d="M793.382 211.505V46.2516H810.531V63.846C819.291 49.8893 831.689 42.9109 847.724 42.9109C863.166 42.9109 875.341 48.6272 884.25 60.0599C893.307 71.4925 897.835 87.0083 897.835 106.607C897.835 125.167 893.232 140.088 884.027 151.373C874.97 162.508 862.943 168.076 847.947 168.076C833.545 168.076 821.593 162.286 812.09 150.704V211.505H793.382ZM844.606 60.2826C834.807 60.2826 826.938 64.4399 820.999 72.7546C815.06 80.9208 812.09 91.8337 812.09 105.494C812.09 119.153 815.06 130.141 820.999 138.455C826.938 146.621 834.807 150.704 844.606 150.704C854.703 150.704 862.869 146.621 869.105 138.455C875.341 130.141 878.459 119.376 878.459 106.162C878.459 92.2049 875.341 81.0692 869.105 72.7546C863.017 64.4399 854.851 60.2826 844.606 60.2826Z" fill="#E3E3E3"/>
<path d="M1018.25 110.839H932.281C932.43 121.529 934.508 129.844 938.517 135.783C944.901 145.879 954.255 150.927 966.579 150.927C981.724 150.927 991.894 143.132 997.091 127.542H1015.8C1013.42 140.311 1007.86 150.259 999.095 157.386C990.335 164.513 979.274 168.076 965.911 168.076C949.578 168.076 936.661 162.583 927.159 151.595C917.656 140.46 912.905 125.315 912.905 106.162C912.905 87.0083 917.73 71.7152 927.381 60.2826C937.181 48.7015 950.172 42.9109 966.356 42.9109C977.343 42.9109 986.994 45.6577 995.309 51.1513C1003.77 56.6449 1009.86 64.143 1013.57 73.6454C1016.69 81.8116 1018.25 94.2093 1018.25 110.839ZM932.726 95.6941H998.204C998.353 95.3972 998.427 94.9517 998.427 94.3578C998.427 84.7069 995.309 76.6149 989.073 70.082C982.837 63.4006 975.191 60.0599 966.134 60.0599C956.78 60.0599 949.059 63.3263 942.971 69.8593C936.884 76.2438 933.469 84.8554 932.726 95.6941Z" fill="#E3E3E3"/>
<path d="M1095.95 62.5097C1083.48 62.8067 1074.13 65.702 1067.89 71.1956C1061.66 76.6892 1058.54 87.0825 1058.54 102.376V162.954H1039.83V46.2516H1056.98V67.4094C1062.32 58.6493 1067.45 52.4133 1072.35 48.7015C1077.39 44.8411 1082.89 42.9109 1088.83 42.9109C1090.46 42.9109 1092.84 43.1336 1095.95 43.579V62.5097Z" fill="#E3E3E3"/>
<path d="M1154.08 46.2516V61.3961H1134.93V141.35C1134.93 145.508 1135.6 148.329 1136.93 149.814C1138.42 151.15 1141.17 151.818 1145.17 151.818C1148.89 151.818 1151.86 151.521 1154.08 150.927V166.517C1148.29 167.557 1143.24 168.076 1138.94 168.076C1131.66 168.076 1126.1 166.443 1122.24 163.176C1118.37 160.058 1116.44 155.53 1116.44 149.591V61.3961H1100.63V46.2516H1116.44V14.1808H1134.93V46.2516H1154.08Z" fill="#E3E3E3"/>
<path d="M1191.79 46.2516V162.954H1173.31V46.2516H1191.79ZM1191.79 0.595215V23.9802H1173.09V0.595215H1191.79Z" fill="#E3E3E3"/>
<path d="M1233.81 128.21C1234.71 135.189 1237.08 140.757 1240.94 144.914C1244.95 148.923 1252.08 150.927 1262.32 150.927C1270.49 150.927 1277.02 149.294 1281.92 146.027C1286.97 142.613 1289.49 138.158 1289.49 132.665C1289.49 128.359 1288.08 124.944 1285.26 122.42C1282.44 119.896 1277.84 117.891 1271.45 116.407L1254.08 112.175C1240.27 108.908 1230.62 104.825 1225.13 99.9257C1219.78 94.8775 1217.11 87.7506 1217.11 78.5451C1217.11 67.7064 1221.19 59.0948 1229.36 52.7103C1237.53 46.1774 1248.37 42.9109 1261.88 42.9109C1275.39 42.9109 1285.78 46.0289 1293.06 52.2649C1300.33 58.5009 1304.04 67.3352 1304.19 78.7678H1284.59C1284.15 66.2959 1276.35 60.0599 1261.21 60.0599C1253.64 60.0599 1247.62 61.6931 1243.17 64.9596C1238.71 68.0776 1236.49 72.3091 1236.49 77.6543C1236.49 81.8116 1238.19 85.2266 1241.61 87.8991C1245.02 90.4232 1250.52 92.5761 1258.09 94.3578L1275.91 98.5894C1287.49 101.41 1295.88 105.419 1301.07 110.616C1306.27 115.664 1308.87 122.494 1308.87 131.106C1308.87 142.39 1304.49 151.373 1295.73 158.054C1287.12 164.735 1275.46 168.076 1260.76 168.076C1230.62 168.076 1215.11 154.788 1214.22 128.21H1233.81Z" fill="#E3E3E3"/>
<path d="M1431.14 110.839H1345.17C1345.32 121.529 1347.4 129.844 1351.41 135.783C1357.79 145.879 1367.15 150.927 1379.47 150.927C1394.61 150.927 1404.79 143.132 1409.98 127.542H1428.69C1426.31 140.311 1420.75 150.259 1411.99 157.386C1403.23 164.513 1392.16 168.076 1378.8 168.076C1362.47 168.076 1349.55 162.583 1340.05 151.595C1330.55 140.46 1325.8 125.315 1325.8 106.162C1325.8 87.0083 1330.62 71.7152 1340.27 60.2826C1350.07 48.7015 1363.06 42.9109 1379.25 42.9109C1390.23 42.9109 1399.89 45.6577 1408.2 51.1513C1416.66 56.6449 1422.75 64.143 1426.46 73.6454C1429.58 81.8116 1431.14 94.2093 1431.14 110.839ZM1345.62 95.6941H1411.1C1411.24 95.3972 1411.32 94.9517 1411.32 94.3578C1411.32 84.7069 1408.2 76.6149 1401.96 70.082C1395.73 63.4006 1388.08 60.0599 1379.02 60.0599C1369.67 60.0599 1361.95 63.3263 1355.86 69.8593C1349.77 76.2438 1346.36 84.8554 1345.62 95.6941Z" fill="#E3E3E3"/>
</svg>
